<svg width="38" height="37" viewBox="0 0 38 37" fill="none" xmlns="http://www.w3.org/2000/svg">
<path d="M37.3579 19.331C37.3579 19.412 37.3179 19.533 37.3179 19.614C37.2779 20.953 37.0789 22.248 36.6809 23.505C36.4019 24.437 35.9639 25.287 35.4059 26.057C34.6899 26.991 33.8129 27.679 32.7779 28.206C32.0209 28.569 31.2249 28.853 30.3879 29.057C29.7909 29.179 29.1539 29.301 28.5559 29.382C28.3559 29.42 28.3959 29.42 28.2769 29.26C27.1619 27.679 26.0079 26.099 24.8929 24.559C24.6929 24.275 24.4939 23.993 24.2949 23.708C24.2549 23.667 24.2549 23.627 24.2149 23.586C24.2149 23.586 24.2149 23.545 24.2549 23.545C24.2949 23.545 24.3349 23.545 24.3749 23.545C24.8929 23.545 25.4109 23.545 25.9279 23.505C26.6839 23.464 27.4009 23.383 28.1179 23.18C28.6359 23.018 29.0739 22.817 29.4719 22.451C29.8699 22.129 30.1489 21.68 30.3489 21.194C30.5469 20.748 30.6269 20.303 30.7069 19.858C30.8269 19.128 30.8669 18.398 30.8669 17.669C30.8669 15.683 30.8669 13.698 30.8669 11.712C30.8669 10.942 30.7869 10.171 30.6679 9.40199C30.5879 8.95599 30.4279 8.51 30.2299 8.104C29.8309 7.334 29.2729 6.848 28.4779 6.565C28.0799 6.403 27.6809 6.32101 27.2829 6.24001C26.6059 6.12001 25.9289 6.07899 25.2519 6.07899C20.9109 6.07899 16.6099 6.07899 12.2689 6.07899C12.1089 6.07899 11.9499 6.07899 11.7909 6.07899C11.7509 6.07899 11.7109 6.079 11.6709 5.998C11.6709 5.958 11.6309 5.95799 11.5909 5.91699C10.3159 4.13399 9.04293 2.351 7.76793 0.567001C7.76793 0.526001 7.72793 0.525992 7.72793 0.485992C7.68793 0.404992 7.68793 0.404999 7.76793 0.404999C7.92793 0.363999 8.08694 0.324005 8.20594 0.324005C8.72394 0.243005 9.20193 0.202002 9.71993 0.121002C10.1179 0.0810022 10.5159 0.0810004 10.9139 0.0410004C10.9939 0.0410004 11.1129 0.041 11.1929 0C16.2119 0 21.2289 0 26.2469 0C26.3269 0 26.4069 0.0410004 26.4859 0.0410004C27.0839 0.0810004 27.6799 0.120995 28.2779 0.160995C28.9949 0.242995 29.7129 0.364001 30.4279 0.526001C31.2649 0.729001 32.1009 1.01199 32.8979 1.37799C33.8929 1.86399 34.7289 2.553 35.4059 3.444C36.0439 4.255 36.4419 5.146 36.7609 6.12C37.1189 7.375 37.3179 8.673 37.3979 9.97C37.3979 10.05 37.3979 10.171 37.4369 10.253C37.3579 13.333 37.3579 16.331 37.3579 19.331Z" fill="#2CACE3"/>
<path d="M0 10.7391C0 10.6171 0.0400009 10.4971 0.0400009 10.3741C0.0800009 9.76707 0.119997 9.11807 0.199997 8.51107C0.359997 7.37507 0.597997 6.32207 1.075 5.26907C1.594 4.13407 2.27 3.16206 3.265 2.39106C3.465 2.23006 3.425 2.23007 3.544 2.43107C4.819 4.21407 6.093 5.95808 7.368 7.74208C7.368 7.78208 7.408 7.78206 7.408 7.82206C7.448 7.86206 7.448 7.94307 7.408 7.98407C7.089 8.47007 6.93 9.03707 6.811 9.60507C6.691 10.1711 6.651 10.7401 6.611 11.3061C6.611 11.7121 6.571 12.1591 6.571 12.5641C6.571 14.3871 6.571 16.1691 6.571 17.9941C6.571 18.6831 6.611 19.3731 6.731 20.0601C6.811 20.5471 6.931 21.0351 7.169 21.5201C7.528 22.3301 8.165 22.8561 8.961 23.1801C9.359 23.3431 9.757 23.4241 10.196 23.5051C10.872 23.6271 11.55 23.6671 12.227 23.6671C14.298 23.6671 16.409 23.6671 18.479 23.6671C18.718 23.6671 18.679 23.6271 18.798 23.8291C21.666 27.8411 24.532 31.8521 27.44 35.8651C27.48 35.9061 27.48 35.9061 27.52 35.9461C27.678 36.1901 27.718 36.4331 27.64 36.6751C27.6 36.8371 27.48 36.9181 27.361 36.9591C27.321 36.9591 27.281 36.9991 27.241 36.9991C25.21 36.9991 23.179 36.9991 21.187 36.9991C21.148 36.9991 21.148 36.9591 21.108 36.9591C20.948 36.9181 20.789 36.8781 20.669 36.7561C20.55 36.6341 20.431 36.5121 20.311 36.3911C18.837 34.2031 17.324 32.0141 15.85 29.8261C15.73 29.6251 15.77 29.6641 15.532 29.6641C14.137 29.6641 12.744 29.6641 11.351 29.6641C10.713 29.6641 10.076 29.6251 9.439 29.5441C8.801 29.4631 8.164 29.3821 7.528 29.2601C6.731 29.0981 5.974 28.8951 5.217 28.5701C4.38 28.2481 3.624 27.7601 2.987 27.1941C2.15 26.4631 1.514 25.5311 1.075 24.4781C0.636997 23.4641 0.438999 22.4111 0.278999 21.3581C0.198999 20.7101 0.158996 20.1011 0.118996 19.4531C0.118996 19.3321 0.0790024 19.1701 0.0790024 19.0481C2.37674e-06 16.2511 0 13.4951 0 10.7391Z" fill="#010101"/>
</svg>
